<?xml version="1.0" encoding="utf-8"?>
<svg viewBox="0 0 500 500" xmlns="http://www.w3.org/2000/svg">
  <path d="M 19.078 158.414 L 18.826 153.85 Q 18.518 153.906 18.126 153.948 Q 17.734 153.99 17.342 153.99 L 4.238 153.99 Q 4.182 154.102 4.154 154.326 Q 4.126 154.55 4.098 154.788 Q 4.07 155.026 4.07 155.25 Q 4.07 155.474 4.07 155.558 Q 4.07 155.614 4.644 155.768 Q 5.218 155.922 5.946 156.062 L 5.946 167.85 Q 5.946 168.438 5.932 169.264 Q 5.918 170.09 5.862 170.65 Q 5.834 170.79 5.708 170.86 Q 5.582 170.93 5.358 170.986 Q 5.218 171.014 5.022 171.07 Q 4.826 171.126 4.63 171.182 Q 4.434 171.238 4.28 171.308 Q 4.126 171.378 4.098 171.406 Q 4.042 171.462 4.028 171.686 Q 4.014 171.91 4.014 172.162 Q 4.014 172.414 4.028 172.666 Q 4.042 172.918 4.098 173.03 L 11.21 173.03 Q 11.266 172.918 11.294 172.694 Q 11.322 172.47 11.35 172.232 Q 11.378 171.994 11.378 171.784 Q 11.378 171.574 11.378 171.49 Q 11.378 171.462 11.154 171.392 Q 10.93 171.322 10.594 171.252 Q 10.258 171.182 9.838 171.098 Q 9.418 171.014 9.026 170.958 L 9.026 164.406 L 11.574 164.406 Q 12.078 164.406 12.792 164.42 Q 13.506 164.434 14.066 164.49 Q 14.206 164.518 14.276 164.644 Q 14.346 164.77 14.402 164.994 Q 14.43 165.134 14.486 165.33 Q 14.542 165.526 14.598 165.722 Q 14.654 165.918 14.71 166.072 Q 14.766 166.226 14.822 166.254 Q 14.878 166.31 15.116 166.324 Q 15.354 166.338 15.634 166.338 Q 15.914 166.338 16.18 166.324 Q 16.446 166.31 16.558 166.254 L 16.558 160.738 Q 16.446 160.682 16.208 160.654 Q 15.97 160.626 15.704 160.598 Q 15.438 160.57 15.2 160.57 Q 14.962 160.57 14.878 160.57 Q 14.822 160.57 14.668 161.144 Q 14.514 161.718 14.374 162.446 L 9.026 162.446 L 9.026 155.922 L 11.238 156.062 L 16.558 156.062 Q 16.67 156.426 16.824 156.888 Q 16.978 157.35 17.132 157.756 Q 17.286 158.162 17.412 158.442 Q 17.538 158.722 17.594 158.722 Q 17.874 158.722 18.364 158.624 Q 18.854 158.526 19.078 158.414 Z M 23.92 156.538 Q 24.9 156.202 25.488 155.656 Q 26.076 155.11 26.076 154.298 Q 26.076 153.486 25.488 152.884 Q 24.9 152.282 23.92 152.282 Q 22.94 152.282 22.352 152.884 Q 21.764 153.486 21.764 154.298 Q 21.764 155.11 22.352 155.656 Q 22.94 156.202 23.92 156.538 Z M 20.588 160.542 L 22.016 160.794 Q 22.408 160.85 22.478 161.074 Q 22.548 161.298 22.548 161.69 L 22.548 167.99 Q 22.548 168.522 22.534 169.292 Q 22.52 170.062 22.492 170.65 Q 22.492 170.874 22.212 170.958 Q 22.072 171.014 21.834 171.07 Q 21.596 171.126 21.372 171.196 Q 21.148 171.266 20.98 171.336 Q 20.812 171.406 20.784 171.434 Q 20.728 171.49 20.714 171.7 Q 20.7 171.91 20.7 172.162 Q 20.7 172.414 20.728 172.666 Q 20.756 172.918 20.784 173.03 L 27.14 173.03 Q 27.168 172.918 27.21 172.694 Q 27.252 172.47 27.28 172.232 Q 27.308 171.994 27.322 171.798 Q 27.336 171.602 27.336 171.518 Q 27.336 171.49 27.14 171.42 Q 26.944 171.35 26.678 171.294 Q 26.412 171.238 26.104 171.182 Q 25.796 171.126 25.572 171.098 L 25.572 158.47 L 25.068 158.274 Q 24.788 158.302 24.158 158.386 Q 23.528 158.47 22.828 158.582 Q 22.128 158.694 21.498 158.82 Q 20.868 158.946 20.588 159.058 Q 20.56 159.17 20.546 159.38 Q 20.532 159.59 20.532 159.814 Q 20.532 160.038 20.546 160.234 Q 20.56 160.43 20.588 160.542 Z M 29.185 173.03 L 35.541 173.03 Q 35.569 172.918 35.611 172.694 Q 35.653 172.47 35.681 172.232 Q 35.709 171.994 35.723 171.798 Q 35.737 171.602 35.737 171.518 Q 35.737 171.49 35.541 171.42 Q 35.345 171.35 35.079 171.294 Q 34.813 171.238 34.505 171.182 Q 34.197 171.126 33.973 171.098 L 33.973 151.806 L 33.469 151.61 Q 33.189 151.638 32.559 151.722 Q 31.929 151.806 31.229 151.918 Q 30.529 152.03 29.899 152.156 Q 29.269 152.282 28.989 152.394 Q 28.961 152.506 28.947 152.716 Q 28.933 152.926 28.933 153.15 Q 28.933 153.374 28.947 153.57 Q 28.961 153.766 28.989 153.878 L 30.417 154.13 Q 30.809 154.186 30.879 154.41 Q 30.949 154.634 30.949 155.026 L 30.949 167.99 Q 30.949 168.522 30.935 169.292 Q 30.921 170.062 30.893 170.65 Q 30.893 170.874 30.613 170.958 Q 30.473 171.014 30.235 171.07 Q 29.997 171.126 29.773 171.196 Q 29.549 171.266 29.381 171.336 Q 29.213 171.406 29.185 171.434 Q 29.129 171.49 29.115 171.7 Q 29.101 171.91 29.101 172.162 Q 29.101 172.414 29.129 172.666 Q 29.157 172.918 29.185 173.03 Z M 60.095 171.098 L 60.095 163.314 Q 60.095 162.138 59.997 161.228 Q 59.899 160.318 59.255 159.59 Q 58.583 158.834 57.533 158.512 Q 56.483 158.19 55.391 158.19 Q 52.367 158.19 50.855 160.374 Q 50.687 159.982 50.323 159.59 Q 49.651 158.834 48.601 158.512 Q 47.551 158.19 46.459 158.19 Q 43.463 158.19 41.951 160.346 L 41.951 158.47 L 41.447 158.274 Q 41.167 158.302 40.607 158.386 Q 40.047 158.47 39.417 158.582 Q 38.787 158.694 38.227 158.82 Q 37.667 158.946 37.387 159.058 Q 37.359 159.17 37.345 159.38 Q 37.331 159.59 37.331 159.814 Q 37.331 160.038 37.345 160.234 Q 37.359 160.43 37.387 160.542 L 38.675 160.794 Q 39.067 160.878 39.137 161.088 Q 39.207 161.298 39.207 161.69 L 39.207 167.99 Q 39.207 168.522 39.193 169.306 Q 39.179 170.09 39.151 170.678 Q 39.151 170.902 38.871 170.986 Q 38.731 171.042 38.521 171.098 Q 38.311 171.154 38.115 171.224 Q 37.919 171.294 37.765 171.35 Q 37.611 171.406 37.583 171.434 Q 37.527 171.49 37.513 171.7 Q 37.499 171.91 37.499 172.162 Q 37.499 172.414 37.527 172.666 Q 37.555 172.918 37.583 173.03 L 43.659 173.03 Q 43.687 172.918 43.729 172.694 Q 43.771 172.47 43.799 172.232 Q 43.827 171.994 43.841 171.798 Q 43.855 171.602 43.855 171.518 Q 43.855 171.49 43.687 171.434 Q 43.519 171.378 43.267 171.308 Q 43.015 171.238 42.735 171.196 Q 42.455 171.154 42.231 171.098 L 42.231 161.83 Q 43.043 161.214 43.925 160.948 Q 44.807 160.682 45.703 160.682 Q 46.963 160.682 47.551 161.48 Q 48.139 162.278 48.139 163.594 L 48.139 167.99 Q 48.139 168.522 48.125 169.306 Q 48.111 170.09 48.083 170.678 Q 48.083 170.902 47.803 170.986 Q 47.663 171.042 47.453 171.098 Q 47.243 171.154 47.047 171.224 Q 46.851 171.294 46.697 171.35 Q 46.543 171.406 46.515 171.434 Q 46.459 171.49 46.445 171.7 Q 46.431 171.91 46.431 172.162 Q 46.431 172.414 46.459 172.666 Q 46.487 172.918 46.515 173.03 L 52.647 173.03 Q 52.675 172.918 52.717 172.694 Q 52.759 172.47 52.787 172.232 Q 52.815 171.994 52.829 171.798 Q 52.843 171.602 52.843 171.518 Q 52.843 171.49 52.661 171.434 Q 52.479 171.378 52.227 171.308 Q 51.975 171.238 51.681 171.196 Q 51.387 171.154 51.163 171.098 L 51.163 161.83 Q 51.975 161.214 52.857 160.948 Q 53.739 160.682 54.635 160.682 Q 55.895 160.682 56.483 161.48 Q 57.071 162.278 57.071 163.594 L 57.071 167.99 Q 57.071 168.522 57.057 169.306 Q 57.043 170.09 57.015 170.678 Q 57.015 170.902 56.735 170.986 Q 56.595 171.042 56.385 171.098 Q 56.175 171.154 55.979 171.224 Q 55.783 171.294 55.629 171.35 Q 55.475 171.406 55.447 171.434 Q 55.391 171.49 55.377 171.7 Q 55.363 171.91 55.363 172.162 Q 55.363 172.414 55.391 172.666 Q 55.419 172.918 55.447 173.03 L 61.579 173.03 Q 61.607 172.918 61.649 172.694 Q 61.691 172.47 61.719 172.232 Q 61.747 171.994 61.761 171.798 Q 61.775 171.602 61.775 171.518 Q 61.775 171.49 61.593 171.434 Q 61.411 171.378 61.159 171.308 Q 60.907 171.238 60.613 171.196 Q 60.319 171.154 60.095 171.098 Z M 76.643 164.098 Q 76.643 164.574 76.601 165.316 Q 76.559 166.058 76.475 166.45 L 66.759 166.45 Q 66.787 167.374 67.081 168.228 Q 67.375 169.082 67.935 169.712 Q 68.495 170.342 69.349 170.72 Q 70.203 171.098 71.407 171.098 Q 71.911 171.098 72.485 171.028 Q 73.059 170.958 73.633 170.832 Q 74.207 170.706 74.725 170.524 Q 75.243 170.342 75.635 170.118 L 76.307 171.602 Q 75.411 172.526 73.913 173.058 Q 72.415 173.59 70.651 173.59 Q 68.887 173.59 67.571 173.03 Q 66.255 172.47 65.373 171.49 Q 64.491 170.51 64.043 169.18 Q 63.595 167.85 63.595 166.338 Q 63.595 164.294 64.155 162.754 Q 64.715 161.214 65.681 160.206 Q 66.647 159.198 67.963 158.694 Q 69.279 158.19 70.763 158.19 Q 72.163 158.19 73.395 158.722 Q 74.627 159.254 75.411 160.318 Q 75.887 160.962 76.265 161.928 Q 76.643 162.894 76.643 164.098 Z M 73.423 164.434 L 73.423 163.846 Q 73.423 162.25 72.583 161.354 Q 71.743 160.458 70.483 160.458 Q 69.475 160.458 68.775 160.85 Q 68.075 161.242 67.641 161.844 Q 67.207 162.446 66.997 163.146 Q 66.787 163.846 66.759 164.434 Z M 78.547 173.03 L 84.903 173.03 Q 84.931 172.918 84.973 172.694 Q 85.015 172.47 85.043 172.232 Q 85.071 171.994 85.085 171.798 Q 85.099 171.602 85.099 171.518 Q 85.099 171.49 84.903 171.42 Q 84.707 171.35 84.441 171.294 Q 84.175 171.238 83.867 171.182 Q 83.559 171.126 83.335 171.098 L 83.335 151.806 L 82.831 151.61 Q 82.551 151.638 81.921 151.722 Q 81.291 151.806 80.591 151.918 Q 79.891 152.03 79.261 152.156 Q 78.631 152.282 78.351 152.394 Q 78.323 152.506 78.309 152.716 Q 78.295 152.926 78.295 153.15 Q 78.295 153.374 78.309 153.57 Q 78.323 153.766 78.351 153.878 L 79.779 154.13 Q 80.171 154.186 80.241 154.41 Q 80.311 154.634 80.311 155.026 L 80.311 167.99 Q 80.311 168.522 80.297 169.292 Q 80.283 170.062 80.255 170.65 Q 80.255 170.874 79.975 170.958 Q 79.835 171.014 79.597 171.07 Q 79.359 171.126 79.135 171.196 Q 78.911 171.266 78.743 171.336 Q 78.575 171.406 78.547 171.434 Q 78.491 171.49 78.477 171.7 Q 78.463 171.91 78.463 172.162 Q 78.463 172.414 78.491 172.666 Q 78.519 172.918 78.547 173.03 Z M 90.081 156.538 Q 91.061 156.202 91.649 155.656 Q 92.237 155.11 92.237 154.298 Q 92.237 153.486 91.649 152.884 Q 91.061 152.282 90.081 152.282 Q 89.101 152.282 88.513 152.884 Q 87.925 153.486 87.925 154.298 Q 87.925 155.11 88.513 155.656 Q 89.101 156.202 90.081 156.538 Z M 86.749 160.542 L 88.177 160.794 Q 88.569 160.85 88.639 161.074 Q 88.709 161.298 88.709 161.69 L 88.709 167.99 Q 88.709 168.522 88.695 169.292 Q 88.681 170.062 88.653 170.65 Q 88.653 170.874 88.373 170.958 Q 88.233 171.014 87.995 171.07 Q 87.757 171.126 87.533 171.196 Q 87.309 171.266 87.141 171.336 Q 86.973 171.406 86.945 171.434 Q 86.889 171.49 86.875 171.7 Q 86.861 171.91 86.861 172.162 Q 86.861 172.414 86.889 172.666 Q 86.917 172.918 86.945 173.03 L 93.301 173.03 Q 93.329 172.918 93.371 172.694 Q 93.413 172.47 93.441 172.232 Q 93.469 171.994 93.483 171.798 Q 93.497 171.602 93.497 171.518 Q 93.497 171.49 93.301 171.42 Q 93.105 171.35 92.839 171.294 Q 92.573 171.238 92.265 171.182 Q 91.957 171.126 91.733 171.098 L 91.733 158.47 L 91.229 158.274 Q 90.949 158.302 90.319 158.386 Q 89.689 158.47 88.989 158.582 Q 88.289 158.694 87.659 158.82 Q 87.029 158.946 86.749 159.058 Q 86.721 159.17 86.707 159.38 Q 86.693 159.59 86.693 159.814 Q 86.693 160.038 86.707 160.234 Q 86.721 160.43 86.749 160.542 Z M 108.366 164.098 Q 108.366 164.574 108.324 165.316 Q 108.282 166.058 108.198 166.45 L 98.482 166.45 Q 98.51 167.374 98.804 168.228 Q 99.098 169.082 99.658 169.712 Q 100.218 170.342 101.072 170.72 Q 101.926 171.098 103.13 171.098 Q 103.634 171.098 104.208 171.028 Q 104.782 170.958 105.356 170.832 Q 105.93 170.706 106.448 170.524 Q 106.966 170.342 107.358 170.118 L 108.03 171.602 Q 107.134 172.526 105.636 173.058 Q 104.138 173.59 102.374 173.59 Q 100.61 173.59 99.294 173.03 Q 97.978 172.47 97.096 171.49 Q 96.214 170.51 95.766 169.18 Q 95.318 167.85 95.318 166.338 Q 95.318 164.294 95.878 162.754 Q 96.438 161.214 97.404 160.206 Q 98.37 159.198 99.686 158.694 Q 101.002 158.19 102.486 158.19 Q 103.886 158.19 105.118 158.722 Q 106.35 159.254 107.134 160.318 Q 107.61 160.962 107.988 161.928 Q 108.366 162.894 108.366 164.098 Z M 105.146 164.434 L 105.146 163.846 Q 105.146 162.25 104.306 161.354 Q 103.466 160.458 102.206 160.458 Q 101.198 160.458 100.498 160.85 Q 99.798 161.242 99.364 161.844 Q 98.93 162.446 98.72 163.146 Q 98.51 163.846 98.482 164.434 Z M 118.921 158.19 Q 118.165 158.19 117.479 158.47 Q 116.793 158.75 116.233 159.198 Q 115.673 159.646 115.239 160.164 Q 114.805 160.682 114.581 161.13 L 114.553 161.13 L 114.553 158.47 L 114.049 158.274 Q 113.769 158.302 113.223 158.386 Q 112.677 158.47 112.061 158.582 Q 111.445 158.694 110.899 158.82 Q 110.353 158.946 110.073 159.058 Q 110.045 159.17 110.031 159.38 Q 110.017 159.59 110.017 159.814 Q 110.017 160.038 110.031 160.234 Q 110.045 160.43 110.073 160.542 L 111.361 160.794 Q 111.753 160.878 111.823 161.088 Q 111.893 161.298 111.893 161.69 L 111.893 167.99 Q 111.893 168.522 111.879 169.306 Q 111.865 170.09 111.837 170.678 Q 111.837 170.902 111.557 170.986 Q 111.417 171.042 111.207 171.098 Q 110.997 171.154 110.801 171.224 Q 110.605 171.294 110.451 171.35 Q 110.297 171.406 110.269 171.434 Q 110.213 171.49 110.199 171.7 Q 110.185 171.91 110.185 172.162 Q 110.185 172.414 110.213 172.666 Q 110.241 172.918 110.269 173.03 L 116.905 173.03 Q 116.933 172.918 116.975 172.708 Q 117.017 172.498 117.045 172.274 Q 117.073 172.05 117.087 171.868 Q 117.101 171.686 117.101 171.602 Q 117.101 171.574 116.849 171.49 Q 116.597 171.406 116.247 171.336 Q 115.897 171.266 115.519 171.196 Q 115.141 171.126 114.917 171.098 L 114.917 162.558 Q 115.617 161.858 116.415 161.41 Q 117.213 160.962 118.109 160.822 Q 118.445 161.074 118.795 161.424 Q 119.145 161.774 119.425 162.082 L 119.733 162.082 Q 120.293 161.858 120.699 161.396 Q 121.105 160.934 121.105 159.954 Q 121.105 159.086 120.503 158.638 Q 119.901 158.19 118.921 158.19 Z" transform="matrix(4.164636135101318, 0, 0, 4.3837409019470215, -10.811095237731934, -477.688232421875)" style="fill: currentColor;"/>
</svg>